<svg width="70" height="77" viewBox="0 0 70 77" fill="none" xmlns="http://www.w3.org/2000/svg">
<path fill-rule="evenodd" clip-rule="evenodd" d="M0.0121469 31.6046C0.353347 19.7778 8.26267 5.91186 17.1408 0.9574C20.4893 -0.911264 24.8719 0.0391114 26.9295 3.08012C28.9872 6.12113 27.9407 10.1012 24.5921 11.9699C22.753 12.9962 20.1836 15.8435 18.1002 19.4959C15.7685 23.5835 14.3515 28.0719 14.2398 31.9432C14.1288 35.7921 15.2672 38.6733 17.6293 40.6004C20.7003 43.1056 26.2308 44.4946 34.6904 44.1617C43.1471 43.829 48.8337 41.8553 52.125 38.7788C54.7592 36.3164 55.9706 32.9665 55.7398 29.0045C55.5137 25.1229 53.8805 21.0001 51.3558 17.783C49.1097 14.9208 46.5547 13.2768 44.6513 13.083C40.7455 12.6853 37.9343 9.48741 38.3723 5.94037C38.8103 2.39334 42.3315 -0.159674 46.2373 0.238065C58.7255 1.5098 69.1657 14.8133 69.9525 28.3217C70.3826 35.7046 67.8932 42.5883 62.333 47.7856C56.2847 53.4393 47.1524 56.609 35.3065 57.0751C23.4216 57.5427 14.2875 55.2487 8.11827 50.216C2.386 45.5396 -0.200975 38.9919 0.0121469 31.6046ZM39.4374 68.9486C39.4374 73.3953 35.0495 77.0001 29.6368 77.0001C24.2241 77.0001 19.8362 73.3953 19.8362 68.9486C19.8362 64.5018 24.2241 60.897 29.6368 60.897C35.0495 60.897 39.4374 64.5018 39.4374 68.9486Z" fill="#5452F6"/>
</svg>
