<svg version="1.1" xmlns="http://www.w3.org/2000/svg" viewBox="0 0 807 317">
  <!-- svg-source:excalidraw -->
  <defs>
    <style>
      @font-face {
        font-family: "Virgil";
        src: url("https://excalidraw.com/FG_Virgil.woff2");
      }
      @font-face {
        font-family: "Cascadia";
        src: url("https://excalidraw.com/Cascadia.woff2");
      }
    </style>
  </defs>
  <rect x="0" y="0" width="807" height="317" fill="#ffffff"></rect><g transform="translate(376 37.5) rotate(0 44.5 24)"><text x="0" y="19" font-family="Virgil, Segoe UI Emoji" font-size="20px" fill="#000000" text-anchor="start" style="white-space: pre;" direction="ltr">Firebase</text><text x="0" y="43" font-family="Virgil, Segoe UI Emoji" font-size="20px" fill="#000000" text-anchor="start" style="white-space: pre;" direction="ltr">Server</text></g><g transform="translate(91 10) rotate(0 214 56.500000000000014)"><path d="M0.9704191011871114 0.3416222030561909 C102.72055054239948 1.1307385050718781, 205.05684627519054 0.9329210605101581, 428.92221580239317 0.7877397209823592 M-0.06310122025599553 -0.12939417716079873 C147.2677699889848 -1.222938235843645, 294.9364635165354 -1.2544750728695018, 427.6335192055902 0.16661944337784124 M427.4632032327354 0.28324737027287483 C428.02703481471167 41.24723735917361, 425.7555453137122 84.76092903874817, 428.74114195629954 112.66337253525856 M427.96161616779864 -0.8259641919285059 C427.23573852794243 26.047710456140347, 427.7522043706663 52.67482405379416, 427.1669585201889 113.25472803972664 M428.3647109834706 112.67358710973299 C300.669826780901 114.0137183760885, 173.1375102407109 114.6835591941397, -0.38015533241011945 112.3714804311229 M427.57223132901896 113.2186134748727 C279.7252631850172 110.56090427631361, 131.18187896064353 110.79843325405062, -0.47215030800259183 113.04024480688747 M1.7157569341361523 114.30296768620613 C-0.5316965872608126 75.48123942893, -0.427629142459482 37.8090663779527, 1.940678995102644 -1.4842274002730846 M0.392874488607049 113.44443955086174 C0.34340484200045496 86.17140552159401, 0.39932609854266077 58.09211805909873, 0.9939268324524164 -0.157870689406991" stroke="orange" stroke-width="2" fill="none"></path></g><g transform="translate(112 25) rotate(0 84.5 42)"><path d="M85.12194195913013 -0.2892331077515067 C97.24700702771793 -0.9373123939110677, 112.55917449992154 1.9112292343822301, 124.09816751405477 4.912307262840507 C135.637160528188 7.913385291298784, 146.96396370493466 12.405014084990388, 154.35590004392952 17.717235062998153 C161.7478363829244 23.02945604100592, 167.09482696532373 30.27813206107707, 168.4497855480239 36.78563313088709 C169.80474413072406 43.29313420069712, 167.20267873431663 50.73574901562886, 162.48565154013056 56.7622414818583 C157.7686243459445 62.78873394808773, 149.94042114284497 68.73762504239288, 140.1476223829075 72.94458792826372 C130.35482362297006 77.15155081413455, 116.38176682818488 80.40745945808318, 103.72885898050583 82.00401879708332 C91.07595113282679 83.60057813608346, 76.71776095544195 83.99773163561177, 64.23017529683328 82.52394396226455 C51.74258963822462 81.05015628891734, 38.51414953412727 77.5281000644918, 28.803345028853883 73.161292757 C19.092540523580496 68.7944854495082, 10.588898656407284 62.2898636190069, 5.965348265192972 56.3231001173138 C1.341797873978659 50.3563366156207, -0.3442101390259278 43.848878601575564, 1.062042681568002 37.360711746841375 C2.468295502161932 30.872544892107182, 6.857347547495049 22.960363667828904, 14.40286518875655 17.39409898890865 C21.94838283001805 11.827834309988393, 34.5168980546517 6.905130931642329, 46.33514852913701 3.963123673319842 C58.15339900362232 1.0211164149973553, 76.48212911956146 0.19162035910670144, 85.31236803566841 -0.25794456102627095 C94.14260695177536 -0.7075094811592433, 95.1130210282905 0.8196086950868704, 99.31658202577869 1.2657341525220076 C103.52014302326687 1.7118596099571448, 110.95817668208602 1.957767025265228, 110.5337340205975 2.4188081835845523 M83.12266728721224 -0.9362841712280385 C95.56447724286028 -1.9513362063354975, 110.36483236987715 0.9070815955271203, 122.17625822780496 4.033852345915143 C133.98768408573278 7.160623096303166, 146.3963344058329 12.293788197911407, 153.9912224347791 17.8243403311001 C161.5861104637253 23.354892464288792, 165.9905525643866 30.86202624931479, 167.74558640148214 37.2171651450473 C169.50062023857768 43.572304040779805, 168.70644425855863 49.8788415206143, 164.5214254573524 55.95517370549514 C160.33640665614615 62.03150589037598, 152.3925612500227 69.0151486883726, 142.6354735942448 73.67515825433233 C132.87838593846686 78.33516782029206, 118.34982635970724 82.36781698999012, 105.97889952268481 83.91523110125348 C93.60797268566239 85.46264521251685, 80.99658678976928 84.39197036011697, 68.40991257211029 82.95964292191249 C55.8232383544513 81.52731548370801, 40.73347107660157 79.5237745989297, 30.45885421673087 75.32126647202658 C20.184237356860173 71.11875834512345, 11.888053039582385 63.84456529190419, 6.762211412886117 57.74459416049373 C1.6363697861898485 51.64462302908328, -1.284853325413048 45.24176260645201, -0.2961955434467427 38.721439683563865 C0.6924622385195628 32.20111676067572, 5.415869890870393 24.136771537879763, 12.69415810468395 18.622656623164865 C19.972446318497507 13.108541708449966, 32.02031522485455 8.948810579912868, 43.3735337394346 5.63675019527448 C54.72675225401465 2.324689810636093, 74.16508702172635 -0.30570170190061796, 80.81346919216423 -1.2497056846654573 C87.46185136260212 -2.1937096674302965, 82.79170115820106 -0.6166899271240164, 83.26382676206191 -0.027273701314555865 C83.73595236592276 0.5621425244949046, 83.75479195639865 1.799318476591825, 83.64622281532928 2.286791670191306" stroke="black" stroke-width="2" fill="none"></path></g><g transform="translate(126 55.5) rotate(0 66 12)"><text x="66" y="19" font-family="Virgil, Segoe UI Emoji" font-size="20px" fill="black" text-anchor="middle" style="white-space: pre;" direction="ltr">Firebase IOT</text></g><g transform="translate(338 27) rotate(0 75 35.5)"><path d="M92.3343888053211 0.13335481697183837 C103.80705643962969 0.9412064178359868, 115.97158014583353 5.448085723207973, 124.99633372144547 9.57665824038559 C134.0210872970574 13.705230757563207, 142.60981315197543 19.48964011903195, 146.48291025899272 24.904789920037544 C150.35600736601 30.319939721043138, 150.86058905187681 36.456304095692275, 148.23491636354925 42.06755704641915 C145.60924367522168 47.67880999714602, 138.8892140028136 53.99464183580359, 130.7288741290273 58.572307624398796 C122.56853425524103 63.149973412994, 110.80579794462777 67.52907949708083, 99.27287712083161 69.53355177799037 C87.73995629703545 71.53802405889991, 73.56493546867634 71.60922461303282, 61.531349186250374 70.59914130985604 C49.497762903824416 69.58905800667925, 36.413884444076274 67.26305118093804, 27.071359426275855 63.47305195892969 C17.728834408475432 59.68305273692133, 9.707451010761432 53.47131327950383, 5.476199079447838 47.85914597780592 C1.2449471481342433 42.246978676108014, 0.07158225946098296 35.35295348366172, 1.6838478383942856 29.800048148742253 C3.2961134173275886 24.247142813822784, 7.893691553062179 19.145565002327597, 15.149792553047654 14.54171396828912 C22.405893553033128 9.937862934250642, 33.61369110102245 4.537518435299354, 45.22045383830714 2.176941944511391 C56.82721657559183 -0.1836345462765716, 75.86921030165325 0.51258632670271, 84.79036897675579 0.3782550235613442 C93.71152765185832 0.24392372041997845, 95.66652158934585 0.8004026909546766, 98.74740588892232 1.3709541256631965 C101.82829018849878 1.9415055603717164, 103.74900989267354 3.2750882613002728, 103.27567477421464 3.8015636318124635 M89.91994061773936 1.4829174709924047 C101.59897327972057 2.0176199892395013, 116.37032599754627 4.556272831901989, 125.53641581933778 8.162084066133122 C134.70250564112928 11.767895300364255, 141.19127299916423 17.68963357389085, 144.91647954848833 23.117784876379208 C148.64168609781242 28.545936178867567, 150.21082829935585 34.71138150512394, 147.88765511528243 40.730991881063275 C145.564481931209 46.75060225700261, 138.56693113921537 54.45611613774067, 130.97744044404786 59.23544713201524 C123.38794974888035 64.0147781262898, 113.51814435597144 67.34005536064498, 102.35071094427734 69.40697784671067 C91.18327753258323 71.47390033277637, 76.48401103645205 72.5200781517251, 63.97283997388326 71.63698204840944 C51.46166891131448 70.75388594509377, 36.958589523979086 67.73201360625333, 27.283684568864665 64.10840122681671 C17.608779613750244 60.484788847380095, 10.276184448125317 55.58732313215651, 5.923410243196727 49.89530777178973 C1.5706360382681375 44.20329241142295, -0.62416294123087 35.74740184038402, 1.167039339293126 29.956309064616033 C2.958241619817122 24.165216288848043, 9.21145903480598 19.555695415861976, 16.670623926340703 15.148751117181789 C24.129788817875426 10.741806818501601, 34.78750711020138 5.848057342690474, 45.922028688501456 3.5146432725349115 C57.05655026680153 1.181229202379349, 76.06395801201423 1.7043565134867813, 83.47775339614114 1.1482666962484132 C90.89154878026805 0.5921768790100449, 89.04120615525446 0.13423055701351672, 90.40480099326291 0.17810436910470173 C91.76839583127136 0.22197818119588675, 91.71932697275523 0.5332292470019677, 91.65932242419187 1.4115095687955233" stroke="#000000" stroke-width="2" fill="none"></path></g><g transform="translate(686 198) rotate(0 55.5 52.5)"><path d="M53.58411961214183 0.7058546517881155 C62.424902562369184 -0.3766765089802817, 73.47122903862947 1.9809171083291526, 81.76051893725317 6.043915412193215 C90.04980883587686 10.106913716057278, 98.56001830133445 17.291159229857595, 103.319859003884 25.083844474972487 C108.07969970643356 32.876529720087376, 110.35489803953485 43.887279095907445, 110.31956315255046 52.80002688288256 C110.28422826556607 61.71277466985768, 107.89541791686932 71.01424017683988, 103.10784968197765 78.56033119682321 C98.32028144708599 86.10642221680655, 89.72941800084514 93.77724616663758, 81.5941537432005 98.07657300278258 C73.45888948555584 102.37589983892758, 63.67279686544097 104.52492134013045, 54.29626413610973 104.35629221369325 C44.91973140677848 104.18766308725606, 33.41066627975769 101.81221603742522, 25.334957367213036 97.06479824415939 C17.25924845466838 92.31738045089357, 9.995844946471024 83.77566414318039, 5.842010660841787 75.87178545409833 C1.6881763752125494 67.96790676501627, -0.15031984756907468 58.67850963128116, 0.41195165343761175 49.641526109666984 C0.9742231544442982 40.60454258805281, 3.9162632775785085 29.04276315984801, 9.215639666881906 21.64988432441326 C14.515016056185303 14.25700548897851, 24.44917139703842 8.806995959640913, 32.208209989257995 5.284253097058475 C39.96724858147757 1.7615102344760363, 51.587049033142364 1.3188813853893322, 55.769871220199356 0.5134271489186304 C59.95269340725635 -0.2920270875520714, 57.25689104868476 -0.2394720183189385, 57.30514311159993 0.4515276782342639 M33.45264834877172 4.655109645831523 C40.92941879393396 0.3778782611125786, 51.53022791570922 -1.3746559388032722, 60.82423236709316 -0.4645666116418994 C70.1182368184771 0.4455227155194734, 81.42932818386657 4.34399533529902, 89.21667505707538 10.11564560879976 C97.00402193028418 15.8872958823005, 104.01898917757651 25.89773677573456, 107.54831360634599 34.16533502936254 C111.07763803511546 42.43293328299052, 111.7934620358879 50.86372818892242, 110.3926216296922 59.72123513056762 C108.9917812234965 68.57874207221282, 105.11796939331964 80.07967795848744, 99.14327116917184 87.31037667923374 C93.16857294502404 94.54107539998004, 83.64962729262433 100.25656907803223, 74.54443228480541 103.10542745504544 C65.43923727698649 105.95428583205866, 54.017636971511145 106.10952951793737, 44.5121011222583 104.403526941313 C35.00656527300546 102.69752436468863, 24.426889517600564 98.90501537870131, 17.51121718928833 92.86941199529917 C10.595544860976098 86.83380861189704, 5.650978469767992 76.9861287364709, 3.0180671523849014 68.18990664090019 C0.38515583500181094 59.39368454532948, -0.4481875591345599 48.624401337278094, 1.7137492849897882 40.092079421874914 C3.8756861291141362 31.559757506471733, 11.038719790712019 22.93800974387279, 15.98968821713099 16.995975148481122 C20.94065664354996 11.053940553089454, 28.337388946199777 6.402940305383745, 31.419559843503606 4.439871849524913 C34.50173074080743 2.4768033936660805, 33.913014826141534 4.552449877712273, 34.48271360095396 5.217564413328127" stroke="black" stroke-width="2" fill="none"></path></g><g transform="translate(10 233) rotate(0 53.5 28)"><path d="M0.05607820488512516 -1.0489719901233912 C28.48093961449341 1.0003011205699295, 55.121142592094856 0.7108316996600479, 106.3269761297852 0.4647608604282141 M-0.1829215483739972 0.1939384387806058 C23.524869835842406 0.1285730582196265, 48.359350177273164 -1.2559972125571222, 106.9228265983984 0.7627312885597348 M106.13011247850956 1.6594501342624426 C106.20171381711961 15.402318174019454, 106.14203258037568 30.220707682892677, 106.69490421749653 56.72148277424275 M107.10713870357723 -0.30763962399214506 C106.40311317730696 13.648679847456515, 105.94629045415671 25.504997983761132, 106.8496160907671 56.818317417986684 M105.31113565899433 56.82939531467854 C85.3403399477713 56.43898914651013, 64.46684381235391 54.50477866725064, 1.9945892784744501 56.81906124018132 M106.37017850112171 55.88642764557152 C69.80646174168214 55.38552502016536, 33.76732212305069 55.51897347192279, 0.3423721892759204 56.64794853795319 M0.6988181564956903 56.65123220346867 C-0.7041415767371654 45.04783271439373, 0.537473420649767 31.1516685616225, 0.06984234787523746 -0.6400257144123316 M0.7218899829313159 56.35136607754975 C0.54571289870888 34.73180172685534, 0.617105583883822 14.435636919923127, 0.754091720096767 0.7614207910373807" stroke="black" stroke-width="2" fill="none"></path></g><g transform="translate(38.5 249) rotate(0 21 12)"><text x="21" y="19" font-family="Virgil, Segoe UI Emoji" font-size="20px" fill="black" text-anchor="middle" style="white-space: pre;" direction="ltr">ESP</text></g><g><g transform="translate(50.09093305082433 225) rotate(0 49.57213008328608 -46.611983530987075)"><path d="M-0.6953055683523416 0.9049100641161203 C16.099767531452336 -14.659153520688418, 83.36522437034924 -76.74274015389385, 99.83956573492442 -92.34839500151577 M1.1405202789232134 0.3343839024379851 C17.938972648566224 -15.058945316188042, 82.78828420209516 -78.8616019464657, 99.37121536965077 -94.12887712609026" stroke="black" stroke-width="2" fill="none"></path></g><g transform="translate(50.09093305082433 225) rotate(0 49.57213008328608 -46.611983530987075)"><path d="M87.58553223761011 -65.71229813993509 C89.8880958868415 -74.43187619556284, 92.21064085430831 -78.25056693644831, 100.11427919762735 -93.69483686838302 M85.73009384034414 -67.57917256560708 C88.76651920548653 -74.94852359818219, 93.15247777019384 -81.4251245268965, 98.83537468417143 -93.6946058994532" stroke="black" stroke-width="2" fill="none"></path></g><g transform="translate(50.09093305082433 225) rotate(0 49.57213008328608 -46.611983530987075)"><path d="M73.40874501311285 -80.54937016837688 C78.99270433955401 -85.88663560057262, 84.46855326398497 -86.40515704384725, 100.11427919762735 -93.69483686838302 M71.55330661584688 -82.41624459404888 C78.63670892031045 -85.68153250461376, 86.9618861387412 -88.03544540990328, 98.83537468417143 -93.6946058994532" stroke="black" stroke-width="2" fill="none"></path></g></g><g transform="translate(37 161.5) rotate(318.3664606634298 32 12)"><text x="0" y="19" font-family="Virgil, Segoe UI Emoji" font-size="20px" fill="darkblue" text-anchor="start" style="white-space: pre;" direction="ltr">Signal</text></g><g transform="translate(711.5 239.5) rotate(0 30 12)"><text x="30" y="19" font-family="Virgil, Segoe UI Emoji" font-size="20px" fill="darkblue" text-anchor="middle" style="white-space: pre;" direction="ltr">USER</text></g><g><g transform="translate(288.1694658283145 65.88499856553972) rotate(0 21.582878583855972 0.512697622524577)"><path d="M-0.8305341716855764 -1.1150014344602823 C6.400521942290152 -0.9719903780147433, 36.57687043355149 0.4793646344915033, 43.99629133939734 0.7792440533638001 M0.9342966588400303 0.9140188671089708 C7.9684642038183755 1.2389158508740366, 36.15024984210101 1.9967947282455865, 43.13526838881886 2.1403966795094314" stroke="black" stroke-width="2" fill="none"></path></g><g transform="translate(288.1694658283145 65.88499856553972) rotate(0 21.582878583855972 0.512697622524577)"><path d="M20.49880966007879 9.406604469377408 C29.091720751300606 6.580965931971299, 36.223018766719015 3.716398930680656, 44.89162636598563 3.2963124967552724 M22.831797774175016 9.07586000822098 C29.90897971136945 5.556630576743419, 37.64052059939441 4.603008832741144, 42.8124477952159 1.2675228712521496" stroke="black" stroke-width="2" fill="none"></path></g><g transform="translate(288.1694658283145 65.88499856553972) rotate(0 21.582878583855972 0.512697622524577)"><path d="M20.866916417873192 -5.584652222974475 C29.320837736600964 -3.15346256202318, 36.322993022126596 -0.7586536546132807, 44.89162636598563 3.2963124967552724 M23.199904531969416 -5.9153966841309025 C30.178026391111207 -4.024885163667712, 37.77682035742269 0.4276507799799898, 42.8124477952159 1.2675228712521496" stroke="black" stroke-width="2" fill="none"></path></g></g><g transform="translate(330 215) rotate(0 68 46)"><path d="M0.4421709980815649 0.03624839521944523 C52.71378173865378 -1.3973151224851608, 103.63739099912345 0.14101465761661536, 134.4192140903324 1.8833544347435236 M-0.3371688676998019 0.5215872628614306 C36.27181821558625 -0.8344764424487949, 73.19520215708764 -1.3518098009750248, 135.53054747451097 -0.9428578810766339 M135.79829057119787 -0.7158377077430487 C138.6625349773094 20.944725815951816, 137.8791328324005 42.566236376389845, 135.1056158747524 91.18389017321167 M135.59796342719346 -0.7074059443548322 C137.68360524833201 35.34590706545859, 136.39644994795322 69.86013754811137, 135.18068087566644 92.64654929470268 M137.80611874721944 91.15804702974853 C98.98651050813496 89.79960804119703, 67.04827090613543 91.38557194605467, 1.3152472581714392 92.30039919354019 M136.72935140598565 92.52171833347526 C91.19326980356126 92.6111399522796, 47.43990781325846 91.75471243176607, 0.17187586892396212 92.62006882857528 M0.4607116784900427 91.01343239285049 C1.250985268689692 70.19805414900182, 0.7682766357436777 47.81933094970881, 0.20527376793324947 0.7700519058853388 M0.04237714875489473 91.58734754752365 C1.3478038338571785 67.87464092914013, 0.3432546583563088 43.473864967189705, -0.9509151531383395 0.3746428592130542" stroke="green" stroke-width="2" fill="none"></path></g><g transform="translate(372 246.5) rotate(0 23.5 12)"><text x="23.5" y="19" font-family="Virgil, Segoe UI Emoji" font-size="20px" fill="black" text-anchor="middle" style="white-space: pre;" direction="ltr">PWA</text></g><g><g transform="translate(665 259) rotate(0 -85.66994091392496 1.0900086835957836)"><path d="M0.19297325648367414 0.6120637234300375 C-28.320839575553936 0.9528484360625347, -142.49086979192992 1.0242737508068482, -171.07200630865992 1.1834746774286031 M-1.1648545132018626 -0.11220676710829136 C-29.756440370871374 0.4368576678571602, -143.11219530164573 1.8305942582028607, -171.53285508433356 2.292224134299904" stroke="black" stroke-width="2" fill="none"></path></g><g transform="translate(665 259) rotate(0 -85.66994091392496 1.0900086835957836)"><path d="M-142.46937433927104 -6.8180022053576455 C-153.36525654243704 -3.935919205839978, -161.16401544891522 -3.813511679092758, -171.03939352573826 2.175119088012725 M-142.55755425448314 -9.350689408384953 C-151.5084523784687 -5.608180234480793, -157.18222877504405 -2.3580927377466248, -172.24377874581143 1.2961609363369644" stroke="black" stroke-width="2" fill="none"></path></g><g transform="translate(665 259) rotate(0 -85.66994091392496 1.0900086835957836)"><path d="M-142.1801656227738 13.701168360338764 C-153.0158074397442 10.409377152191805, -160.90159095254168 4.357445391709182, -171.03939352573826 2.175119088012725 M-142.2683455379859 11.168481157311456 C-151.31101460342128 9.552359508000434, -157.06030788832052 7.444572833871382, -172.24377874581143 1.2961609363369644" stroke="black" stroke-width="2" fill="none"></path></g></g><g><g transform="translate(399 202) rotate(0 -0.363084269525757 -33.61120609282517)"><path d="M-0.1797830935567617 0.09029092155396934 C-0.19320975107451277 -10.994560784474016, 0.7431093418349823 -54.60229361690581, 1.0330743316560984 -65.46893662847579 M-1.7333079470135273 -0.9079102899692953 C-1.9993048885402582 -11.832941393461079, -0.3678771226542692 -56.29992097755894, 0.10239289214834568 -67.31270310720429" stroke="black" stroke-width="2" fill="none"></path></g><g transform="translate(399 202) rotate(0 -0.363084269525757 -33.61120609282517)"><path d="M9.430554032553593 -38.695887074776124 C6.312581341763879 -49.050530402459174, 3.30651302172062 -60.39598046076193, -0.7689393863268197 -67.39311738191172 M9.06395709630535 -38.69659671370698 C7.983981240974605 -44.14376799801847, 5.935488530548922 -51.34934845531975, 1.0856368744559586 -67.14243313642218" stroke="black" stroke-width="2" fill="none"></path></g><g transform="translate(399 202) rotate(0 -0.363084269525757 -33.61120609282517)"><path d="M-11.075716153681986 -39.47875707352766 C-6.131981335347479 -49.495164490418745, -1.083128152191147 -60.533100977024475, -0.7689393863268197 -67.39311738191172 M-11.442313089930229 -39.47946671245852 C-8.091896048868907 -44.81680973308623, -5.708424363736259 -51.85319062706826, 1.0856368744559586 -67.14243313642218" stroke="black" stroke-width="2" fill="none"></path></g></g></svg>