<?xml version="1.0" standalone="no"?>
<!DOCTYPE svg PUBLIC "-//W3C//DTD SVG 20010904//EN"
 "http://www.w3.org/TR/2001/REC-SVG-20010904/DTD/svg10.dtd">
<svg version="1.0" xmlns="http://www.w3.org/2000/svg"
 width="616.000000pt" height="616.000000pt" viewBox="0 0 616.000000 616.000000"
 preserveAspectRatio="xMidYMid meet">
<metadata>
Created by potrace 1.11, written by Peter Selinger 2001-2013
</metadata>
<g transform="translate(0.000000,616.000000) scale(0.100000,-0.100000)"
fill="#000000" stroke="none">
<path d="M1800 6141 c-92 -26 -115 -36 -200 -89 -141 -86 -262 -184 -393 -317
-68 -69 -191 -212 -232 -269 -11 -16 -25 -33 -31 -40 -18 -19 -171 -249 -200
-301 -78 -140 -132 -244 -174 -340 -18 -38 -40 -88 -50 -110 -48 -107 -143
-395 -156 -475 -3 -14 -9 -38 -14 -55 -16 -53 -46 -230 -58 -335 -9 -83 -8
-429 1 -495 7 -48 10 -62 22 -132 6 -38 40 -180 49 -205 3 -10 9 -26 13 -35 3
-10 7 -22 8 -28 10 -39 56 -145 98 -225 119 -227 285 -424 489 -580 11 -8 32
-25 48 -37 15 -13 32 -23 38 -23 6 0 12 -4 14 -8 4 -12 143 -95 236 -141 65
-33 195 -90 242 -106 3 -1 14 -5 25 -9 88 -34 276 -87 285 -81 5 3 10 1 12 -4
1 -5 19 -11 38 -14 19 -3 67 -12 105 -20 74 -16 124 -25 190 -33 22 -3 51 -7
65 -10 14 -3 52 -8 85 -9 33 -2 89 -7 125 -11 82 -10 688 -10 795 -1 44 4 105
9 135 12 117 10 236 25 375 50 110 20 131 24 200 41 33 8 69 16 80 18 71 11
430 129 449 147 6 5 16 9 23 9 23 0 275 127 368 185 48 30 91 55 95 55 5 0 10
3 12 8 2 4 30 27 63 51 386 285 659 694 753 1131 43 198 47 233 46 460 0 195
-8 298 -34 420 -5 25 -12 56 -14 70 -2 14 -7 32 -10 40 -3 8 -7 26 -10 40 -2
14 -16 65 -30 114 -140 474 -439 933 -813 1249 -50 42 -96 77 -101 77 -6 0
-12 3 -14 8 -11 24 -218 150 -343 207 -69 32 -231 91 -274 100 -9 2 -38 9 -66
15 -27 6 -65 13 -82 16 -18 2 -50 7 -70 11 -45 9 -116 9 -193 -1 -172 -22
-345 -142 -418 -290 -46 -92 -53 -122 -53 -223 -2 -171 94 -330 256 -428 79
-47 155 -71 290 -90 45 -6 186 -73 228 -108 14 -12 38 -31 53 -42 38 -27 151
-140 195 -195 31 -39 96 -132 136 -196 39 -60 144 -291 148 -324 0 -3 3 -10 7
-16 11 -17 49 -172 63 -258 14 -81 14 -327 0 -396 -36 -193 -121 -355 -254
-489 -66 -66 -162 -141 -181 -141 -6 0 -10 -4 -10 -9 0 -5 -10 -13 -22 -17
-13 -4 -25 -10 -28 -14 -9 -15 -173 -87 -275 -123 -89 -31 -214 -65 -300 -82
-16 -3 -41 -8 -55 -10 -59 -12 -87 -17 -124 -20 -21 -3 -55 -7 -75 -10 -225
-33 -706 -38 -956 -10 -55 7 -188 30 -250 44 -22 5 -51 12 -65 15 -55 13 -158
49 -219 78 -36 17 -69 32 -72 32 -3 1 -35 20 -71 43 -109 71 -198 166 -250
268 -78 151 -97 249 -93 470 2 94 6 181 9 195 4 14 9 40 12 59 9 52 11 61 29
131 9 36 18 72 20 80 19 90 145 384 222 519 54 94 157 255 178 277 5 6 21 26
35 45 74 100 202 225 283 277 153 97 238 193 278 312 24 70 31 174 17 249 -11
65 -70 178 -120 232 -61 66 -159 131 -223 149 -5 1 -21 7 -35 12 -45 17 -64
20 -165 23 -74 3 -117 -1 -165 -14z"/>
<path d="M2568 1285 c-2 -1 -25 -5 -53 -8 -27 -4 -75 -13 -105 -22 -30 -9 -62
-18 -71 -20 -35 -8 -117 -49 -181 -92 -123 -81 -231 -221 -273 -353 -6 -18
-17 -127 -17 -162 0 -79 25 -168 72 -254 38 -70 89 -127 180 -204 37 -32 203
-118 240 -125 12 -2 31 -7 43 -11 25 -8 33 -10 97 -21 48 -8 243 -10 298 -3
19 2 36 8 38 12 3 5 9 6 13 4 4 -3 28 1 53 9 26 7 49 11 52 8 3 -4 6 -1 6 5 0
7 6 12 13 12 23 0 136 59 194 101 213 156 308 389 250 614 -19 71 -66 170
-102 212 -88 105 -219 201 -320 234 -22 7 -44 16 -50 20 -9 6 -62 19 -140 35
-32 6 -231 14 -237 9z"/>
</g>
</svg>
